<svg aria-hidden="true" style="position: absolute; width: 0; height: 0; overflow: hidden;" version="1.1" xmlns="http://www.w3.org/2000/svg" xmlns:xlink="http://www.w3.org/1999/xlink">
<defs>
<symbol id="icon-name" viewBox="0 0 32 32">
<path d="M16 16c2.946 0 5.333-2.388 5.333-5.333s-2.388-5.333-5.333-5.333v0c-2.946 0-5.333 2.388-5.333 5.333s2.388 5.333 5.333 5.333v0zM16 19.556q-7.111 0-10.667 5.333l1.778 1.778h17.778l1.778-1.778q-1.778-5.333-10.667-5.333z"></path>
</symbol>
<symbol id="icon-checkbox" viewBox="0 0 30 32">
<path stroke-linejoin="miter" stroke-linecap="butt" stroke-miterlimit="4" stroke-width="1.8824" d="M3.765 1.882h22.588c1.559 0 2.824 1.264 2.824 2.824v22.588c0 1.559-1.264 2.824-2.824 2.824h-22.588c-1.559 0-2.824-1.264-2.824-2.824v-22.588c0-1.559 1.264-2.824 2.824-2.824z"></path>
</symbol>
<symbol id="icon-close" viewBox="0 0 32 32">
<path d="M32 4l-4-4-12 12-12-12-4 4 12 12-12 12 4 4 12-12 12 12 4-4-12-12z"></path>
</symbol>
<symbol id="icon-email" viewBox="0 0 24 32">
<path d="M20 8h-16l-1.333 2.667v12l1.333 1.333h16l2.667-1.333v-12zM20 12l-8 5.333-8-5.333 1.333-1.333 6.667 4zc16-6.070 16.597-6.667 17.333-6.667s1.333 0.597 1.333 1.333c0 0.736-0.597 1.333-1.333 1.333v0z"></path>
</symbol>
<symbol id="icon-phone" viewBox="0 0 24 32">
<path d="M20 18.667h-4l-2.667 1.333-5.333-5.333 1.333-2.667v-4l-1.333-1.333h-2.667l-1.333 1.333q1.333 14.667 16 16l1.333-1.333v-2.667z"></path>
</symbol>
<symbol id="icon-send" viewBox="0 0 32 32">
<path fill="#fff" style="fill: var(--color1, #fff)" d="M32 2.667l-32 14.667 10.667 4 16-13.333-12 13.333v8l5.333-5.333 6.667 2.667z"></path>
</symbol>
<symbol id="icon-clock-1" viewBox="0 0 32 32">
<path fill="#2e2f42" style="fill: var(--color2, #2e2f42)" d="M31.5 15.5c0.002-0.099 0.004-0.215 0.004-0.331 0-8.56-6.94-15.5-15.5-15.5s-15.5 6.94-15.5 15.5c0 6.954 4.579 12.838 10.887 14.802l0.11 0.029h0.5v-0.5l4-12.5c0.089 0.014 0.192 0.022 0.297 0.022 1.105 0 2-0.895 2-2s-0.895-2-2-2c-0.496 0-0.95 0.181-1.3 0.48l0.003-0.002-5-5c-0.128-0.128-0.305-0.207-0.5-0.207-0.391 0-0.707 0.317-0.707 0.707 0 0.195 0.079 0.372 0.207 0.5v0l5.5 5q-1 1.5 0.5 2.5l-4 11.5c-5.502-1.97-9.367-7.139-9.367-13.211 0-7.732 6.268-14 14-14s14 6.268 14 14c0 5.603-3.292 10.438-8.047 12.675l-0.086 0.036v-2c0-0.414-0.336-0.75-0.75-0.75s-0.75 0.336-0.75 0.75v0l-3.5 3.5c-0.276 0-0.5 0.224-0.5 0.5s0.224 0.5 0.5 0.5v0l5 1.5c0.128 0.128 0.305 0.207 0.5 0.207 0.391 0 0.707-0.317 0.707-0.707 0-0.195-0.079-0.372-0.207-0.5v0l-0.5-1.5q9-4.5 9.5-14zM16 14.5c0.414 0 0.75 0.336 0.75 0.75s-0.336 0.75-0.75 0.75v0c-0.414 0-0.75-0.336-0.75-0.75s0.336-0.75 0.75-0.75v0zM18 29.5l2.5-2 0.5 3z"></path>
<path fill="#4d5ae5" style="fill: var(--color3, #4d5ae5)" d="M15.5 3v1.5c0 0.276 0.224 0.5 0.5 0.5s0.5-0.224 0.5-0.5v0-1.5c0-0.276-0.224-0.5-0.5-0.5s-0.5 0.224-0.5 0.5v0zM4 14.5c-0.414 0-0.75 0.336-0.75 0.75s0.336 0.75 0.75 0.75v0h1c0.414 0 0.75-0.336 0.75-0.75s-0.336-0.75-0.75-0.75v0zM28 16c0.414 0 0.75-0.336 0.75-0.75s-0.336-0.75-0.75-0.75v0h-1c-0.414 0-0.75 0.336-0.75 0.75s0.336 0.75 0.75 0.75v0z"></path>
</symbol>
<symbol id="icon-astronaut-1" viewBox="0 0 32 32">
<path fill="#4d5ae5" style="fill: var(--color3, #4d5ae5)" d="M30 4.5l-0.5-2h-1l-1 2h-2c-0.276 0-0.5 0.224-0.5 0.5s0.224 0.5 0.5 0.5v0l1 1.5v2l0.5 0.5 2-1 1.5 1c0.094 0.185 0.282 0.309 0.5 0.309 0.309 0 0.559-0.25 0.559-0.559 0-0.091-0.022-0.177-0.060-0.253l0.001 0.003-0.5-2 1.5-1.5zl-5.5 0.5-1-0.5h-0.5l-1 0.5v-1.5l-0.5-1h1l0.5-0.5 0.5-1 0.5 1v0.5h1.5zM26 20.5h-1v1h1zM26 22.5h-1v1h1zM27 21.5h-1v1h1zM25 21.5h-1v1h1zM22.5 26.5h-1v1h1zM22.5 28.5h-1v1h1zM23.5 27.5h-1v1h1zM21.5 27.5h-1v1h1zM16 24.5h-1v1h1zM16 26.5h-1v1h1zM17 25.5h-1v1h1zM15 25.5h-1v1h1zM6 6h-1v1h1zM6 8.5h-1v1h1zM7 7h-1v1.5h1zM5 7h-1.5v1.5h1.5z"></path>
<path fill="#2e2f42" style="fill: var(--color2, #2e2f42)" d="M24.5 14l-1-0.5-1.5 0.5-1 1-2 1-1.5-0.5c2.115-1.231 3.513-3.487 3.513-6.070 0-3.518-2.595-6.43-5.975-6.926l-0.038-0.005c-3.839 0.035-6.938 3.156-6.938 7 0 1.289 0.348 2.496 0.956 3.533l-0.018-0.033h-3l-5 2.5c-0.173 0.29-0.275 0.639-0.275 1.013 0 1.025 0.772 1.871 1.766 1.986l0.009 0.001 1.5-0.5 2.5-1h1l-5.5 5-1 1.5c-0.407 0.273-0.671 0.73-0.671 1.25s0.264 0.977 0.665 1.247l0.005 0.003h2l1.5-1.5 2-1 0.5 0.5-1.5 2-1.5 1.5v2c0.273 0.407 0.73 0.671 1.25 0.671s0.977-0.264 1.247-0.665l0.003-0.005 1.5-1 2-2.5 1-1 5-5.5 3.5 0.5h0.5l3-2v-0.5l1.5-1q1-1 0-2.5zc-22.914 4-23.25 3.664-23.25 3.25s0.336-0.75 0.75-0.75v0l1-0.5 0.5 1zM28 12l-1.5 0.5v-0.5l-0.5-0.5 2-1zM43 5.5l-0.5 2.5-4-2-1-1.5 1.5-5q4 1.5 4 6zM31.5 5.5c-0.515 4.002-3.9 7.062-8 7.062-4.453 0-8.062-3.61-8.062-8.062 0-0.353 0.023-0.7 0.066-1.040l-0.004 0.040-1.5 5q-2 0-2 1.5c0.15 0.969 0.978 1.703 1.978 1.703 0.608 0 1.153-0.272 1.52-0.7l0.002-0.003 4 2c-1.106 1.26-2.719 2.051-4.517 2.051-3.156 0-5.742-2.436-5.982-5.53l-0.001-0.021zM15 10l-1 1-0.5-1 0.5-0.5zM2.5 25h-1v-0.5l1-1 1 0.5zM5.5 29h-0.5c-0.276 0-0.5-0.224-0.5-0.5s0.224-0.5 0.5-0.5v0l1-1v0.5l0.5 0.5zM9 25.5l-1.5 1.5h-0.5l-0.5-0.5 2-2v-0.5l-2-2h-0.5l-2 1.5-0.5-1 2-2.5 4.5 4.5zh0.5l-4.5-4 3-3c0.185-0.094 0.309-0.282 0.309-0.5 0-0.309-0.25-0.559-0.559-0.559-0.091 0-0.177 0.022-0.253 0.060l0.003-0.001h-2.5v-1.5h3.5c1.269 1.282 3.029 2.075 4.975 2.075 0.362 0 0.717-0.027 1.064-0.080l-0.039 0.005 2.5 1 0.5 1v1zM20 18.5l-0.5-1.5 1.5-1 1 1zM24 15.5l-1 1-1-1 1-1h0.5c0.073-0.037 0.159-0.059 0.25-0.059 0.309 0 0.559 0.25 0.559 0.559 0 0.218-0.124 0.406-0.306 0.499l-0.003 0.001z"></path>
<path fill="#2e2f42" style="fill: var(--color2, #2e2f42)" d="M13.5 18.5l-2-2h-1l-2 2c-0.276 0-0.5 0.224-0.5 0.5s0.224 0.5 0.5 0.5v0l2 2c0 0.276 0.224 0.5 0.5 0.5s0.5-0.224 0.5-0.5v0l2-2c0.276 0 0.5-0.224 0.5-0.5s-0.224-0.5-0.5-0.5v0zM11 20.5l-1.5-1.5 1.5-1.5 1.5 1.5zM17 5v1q1 0 1.5 2.5h1q-0.5-3-2.5-3.5zM19.5 9.5h-1v1h1z"></path>
</symbol>
<symbol id="icon-antenna-1" viewBox="0 0 32 32">
<path fill="#2e2f42" style="fill: var(--color2, #2e2f42)" d="M31 22l-8.5-8.5 1-4.5h0.5c1.077-0.035 1.937-0.917 1.937-1.999 0-1.105-0.895-2-2-2s-2 0.895-2 2c0 0.177 0.023 0.349 0.066 0.513l-0.003-0.014-5 1-8-8.5h-1l-1.5 1.5v1l1 0.5c-1.213 2.117-1.929 4.654-1.929 7.358 0 4.16 1.693 7.924 4.428 10.641l0.001 0.001v6.5h-6.5q-2 0.5-2.5 3v1l0.5 0.5h24.5l0.5-0.5v-1q0-2.5-2.5-3h-6.5v-2.5c0.873 0.181 1.877 0.284 2.905 0.284 2.598 0 5.042-0.661 7.173-1.823l-0.078 0.039 1 1h1l1.5-1.5zM23.5 6c0.075-0.020 0.161-0.031 0.25-0.031 0.569 0 1.031 0.462 1.031 1.031 0 0.481-0.329 0.884-0.774 0.998l-0.007 0.002c-0.075 0.020-0.161 0.031-0.25 0.031-0.569 0-1.031-0.462-1.031-1.031 0-0.481 0.329-0.884 0.774-0.998l0.007-0.002zM22 9.5l-0.5 3-1-1zM21.5 9l-2 1.5-1.5-1zM24 29q1.5 0 1.5 1.5v0.5h-23.5v-0.5q0.5-1.5 1.5-1.5zM16.5 26.5v1h-5.5v-1zM11 25.5v-4q0.5-2 3-2.5 2.5 0.5 2.5 2.5v4zM17.5 24v-2.5q-0.5-3-3.5-3.5-2 0.5-3.5 2-6-7-2-16l18.5 18.5q-4.5 2-9.5 1.5zM29 23l-1-0.5-19.5-19.5-0.5-1 0.5-0.5 21 21z"></path>
<path fill="#4d5ae5" style="fill: var(--color3, #4d5ae5)" d="M14 20.5c-0.828 0-1.5 0.672-1.5 1.5s0.672 1.5 1.5 1.5v0c0.828 0 1.5-0.672 1.5-1.5s-0.672-1.5-1.5-1.5v0zM14 22c-0.088 0.151-0.249 0.25-0.433 0.25-0.276 0-0.5-0.224-0.5-0.5s0.224-0.5 0.5-0.5c0.184 0 0.345 0.099 0.432 0.248l0.001 0.002z"></path>
</symbol>
<symbol id="icon-diagram-1" viewBox="0 0 32 32">
<path fill="#4d5ae5" style="fill: var(--color3, #4d5ae5)" d="M15 15h1v5h-1zM19 17h1.5v3h-1.5zM10.5 18.5h1v1.5h-1zM7.5 18h1v2h-1z"></path>
<path fill="#2e2f42" style="fill: var(--color2, #2e2f42)" d="M1.5 28.5h25.5q2 0 2-2v-2q0-1.5-2-1.5h-0.5v-13.5l3-2.5c0.263 0.234 0.613 0.378 0.995 0.378 0.828 0 1.5-0.672 1.5-1.5s-0.672-1.5-1.5-1.5c-0.828 0-1.5 0.672-1.5 1.5 0 0.043 0.002 0.086 0.005 0.128l-0-0.005-2.5 2v-1q0-1.5-1.5-1.5h-21.5q-1 0-1.5 1.5v16h-0.5q-1.5 0-1.5 1.5v2q0 2 1.5 2zM30.5 5c0.276 0 0.5 0.224 0.5 0.5s-0.224 0.5-0.5 0.5v0c-0.276 0-0.5-0.224-0.5-0.5s0.224-0.5 0.5-0.5v0zM3 7l0.5-0.5h21.5l0.5 0.5v2l-1 1v-2l-0.5-0.5h-19l-0.5 0.5v13.5l0.5 0.5h19l0.5-0.5v-10l1-1v12.5h-22.5zM8 14c-0.034-0.003-0.074-0.004-0.114-0.004-0.828 0-1.5 0.672-1.5 1.5s0.672 1.5 1.5 1.5c0.442 0 0.838-0.191 1.113-0.494l0.001-0.001 2 1h0.5l4-4.5 4 3h0.5l3.5-3.5v8.5h-18v-12.5h18v2.5l-4 4-3.5-3h-1l-4 4.5-1.5-1q0-1.5-1.5-1.5zM8.5 15.5c0 0.276-0.224 0.5-0.5 0.5s-0.5-0.224-0.5-0.5v0c0-0.276 0.224-0.5 0.5-0.5s0.5 0.224 0.5 0.5v0zM11.5 24h5.5v0.5l-0.5 0.5h-4l-1-0.5zM1 24.5l0.5-0.5h9v0.5q0.5 1.5 2 1.5h4q1.5 0 1.5-1.5v-0.5h9l0.5 0.5v2l-0.5 0.5h-25.5l-0.5-0.5z"></path>
</symbol>
<symbol id="icon-twitter-1" viewBox="0 0 32 32">
<path fill="#f4f4fd" style="fill: var(--color4, #f4f4fd)" d="M32 6l-4 2 4-4-6 2c-1.089-1.104-2.601-1.787-4.272-1.787-3.314 0-6 2.686-6 6 0 0.638 0.1 1.253 0.284 1.83l-0.012-0.043-14-8 2 8h-2q0 6 4 6h-2q0 6 6 6l-10 2 10 2c9.941 0 18-8.059 18-18v0z"></path>
</symbol>
<symbol id="icon-facebook-1" viewBox="0 0 32 32">
<path fill="#f4f4fd" style="fill: var(--color4, #f4f4fd)" d="M22 6h2v-6h-4q-6 0-8 8v4h-4v6h4v14h6v-14h6v-6h-6v-4z"></path>
</symbol>
<symbol id="icon-instagram-2" viewBox="0 0 32 32">
<path fill="#f4f4fd" style="fill: var(--color4, #f4f4fd)" d="M32 10v-4l-2-4-4-2h-20l-4 2-2 4v20l2 4 4 2h20l6-6v-16zM30 22l-2 4-2 2-4 2-16-2h-2v-24h24v2l2 4z"></path>
<path fill="#f4f4fd" style="fill: var(--color4, #f4f4fd)" d="M16 8c-4.418 0-8 3.582-8 8s3.582 8 8 8v0c4.418 0 8-3.582 8-8s-3.582-8-8-8v0zM16 22c-3.314 0-6-2.686-6-6s2.686-6 6-6v0c3.314 0 6 2.686 6 6s-2.686 6-6 6v0zM26 8c0 1.105-0.895 2-2 2s-2-0.895-2-2v0c0-1.105 0.895-2 2-2s2 0.895 2 2v0z"></path>
</symbol>
<symbol id="icon-linkedin-1" viewBox="0 0 32 32">
<path fill="#f4f4fd" style="fill: var(--color4, #f4f4fd)" d="M32 32v-12q0-10-8-10-6 0-6 4v-4h-6v22h6v-10q-2-6 4-6 6 2 4 6v10zM0 10h8v22h-8zM4 0l-4 4 4 4 4-4z"></path>
</symbol>
</defs>
</svg>
